<!DOCTYPE svg PUBLIC "-//W3C//DTD SVG 20010904//EN" "http://www.w3.org/TR/2001/REC-SVG-20010904/DTD/svg10.dtd">
<svg version="1.0" xmlns="http://www.w3.org/2000/svg" viewBox="0 0 5000 5000" preserveAspectRatio="xMidYMid meet">
<g id="layer101" fill="#171717" stroke="none">
 <path d="M1407 4358 l-1077 -622 0 -1247 0 -1247 1072 -618 c590 -341 1082 -619 1093 -619 11 0 503 279 1093 620 l1072 619 0 1246 0 1245 -1079 623 c-593 342 -1083 622 -1088 622 -5 0 -494 -280 -1086 -622z"/>
 </g>
<g id="layer102" fill="#c39d63" stroke="none">
 <path d="M1910 2515 l0 -865 343 0 c298 0 354 3 432 19 190 40 316 125 380 254 126 257 25 551 -232 679 l-82 41 37 37 c30 29 469 661 480 691 2 5 -73 9 -168 9 -145 0 -175 -3 -197 -17 -15 -10 -119 -156 -231 -326 -141 -213 -212 -311 -229 -318 -13 -5 -65 -9 -114 -9 l-89 0 0 335 0 335 -165 0 -165 0 0 -865z m703 -74 c118 -46 168 -116 175 -247 5 -100 -8 -143 -61 -201 -59 -64 -129 -83 -329 -90 l-158 -6 0 288 0 287 158 -4 c132 -4 166 -9 215 -27z"/>
 <path d="M982 2882 l-473 -247 3 -63 3 -63 465 -241 c255 -132 470 -242 477 -245 20 -8 18 220 -2 251 -16 24 -471 261 -550 286 l-40 13 55 19 c30 11 161 74 290 141 171 89 238 129 247 147 14 27 19 251 6 249 -5 0 -221 -112 -481 -247z"/>
 <path d="M3520 3018 c0 -70 5 -122 13 -138 9 -18 78 -59 257 -152 135 -69 264 -132 288 -138 l43 -13 -53 -21 c-78 -32 -510 -255 -528 -272 -11 -11 -16 -46 -19 -141 -3 -111 -1 -125 13 -120 8 3 224 114 478 246 l463 240 3 63 3 63 -63 32 c-35 18 -126 65 -203 106 -77 40 -239 124 -360 186 -121 63 -243 127 -271 142 -28 16 -54 29 -58 29 -3 0 -6 -51 -6 -112z"/>
 </g>
<g id="layer103" fill="#ffe2a8" stroke="none">
 <path d="M1910 2514 l0 -866 368 4 c406 5 444 10 588 78 227 109 319 399 202 640 -46 96 -151 197 -249 239 l-75 33 47 47 c38 37 479 669 479 686 0 3 -77 5 -170 5 -145 0 -175 -3 -197 -17 -15 -10 -119 -156 -231 -326 -141 -213 -212 -311 -229 -318 -13 -5 -65 -9 -114 -9 l-89 0 0 335 0 335 -165 0 -165 0 0 -866z m715 -77 c102 -48 144 -102 164 -214 26 -142 -37 -252 -169 -295 -51 -16 -99 -22 -222 -26 l-158 -4 0 287 0 287 163 -4 c152 -3 166 -5 222 -31z"/>
 </g>

</svg>