<?xml version="1.0" standalone="no"?>
<!DOCTYPE svg PUBLIC "-//W3C//DTD SVG 20010904//EN"
 "http://www.w3.org/TR/2001/REC-SVG-20010904/DTD/svg10.dtd">
<svg version="1.0" xmlns="http://www.w3.org/2000/svg"
 width="2067.000000pt" height="2067.000000pt" viewBox="0 0 2067.000000 2067.000000"
 preserveAspectRatio="xMidYMid meet">

<g transform="translate(0.000000,2067.000000) scale(0.100000,-0.100000)"
fill="#000000" stroke="none">
<path d="M9865 18704 c-33 -2 -139 -8 -235 -14 -2311 -140 -4508 -1261 -6001
-3060 -1056 -1272 -1713 -2802 -1908 -4440 -334 -2808 732 -5575 2865 -7440
1319 -1153 2982 -1876 4724 -2054 412 -42 1090 -55 1450 -28 1271 98 2413 426
3471 999 2027 1098 3518 2944 4154 5143 720 2491 263 5196 -1235 7300 -761
1069 -1750 1948 -2890 2567 -1074 584 -2221 917 -3485 1013 -140 11 -797 21
-910 14z m2584 -4244 c112 -57 211 -249 211 -411 0 -196 -81 -523 -350 -1404
-198 -650 -255 -856 -280 -1023 -38 -243 64 -170 274 197 106 185 214 401 238
480 73 238 238 563 401 791 89 124 257 289 332 326 119 58 224 32 336 -81 62
-63 99 -121 99 -155 0 -21 -10 -30 -61 -53 -73 -34 -196 -153 -281 -272 -307
-432 -572 -1135 -428 -1135 36 0 146 174 300 473 155 300 229 475 233 553 2
38 3 39 45 42 91 7 188 -49 234 -135 57 -104 55 -228 -7 -493 -43 -185 -46
-203 -35 -220 58 -93 451 635 632 1170 88 261 124 445 113 582 -6 81 -5 87 14
98 43 23 134 -22 205 -101 107 -119 162 -323 120 -444 -3 -11 42 59 100 155
220 359 352 541 412 566 81 34 177 -34 245 -171 23 -46 43 -103 46 -128 8 -64
-37 -231 -168 -632 -162 -499 -208 -695 -164 -695 136 0 434 510 674 1150 65
173 81 200 116 200 64 0 60 -60 -19 -267 -256 -677 -535 -1166 -719 -1257 -57
-29 -82 -31 -138 -14 -117 35 -251 255 -266 438 -14 167 52 438 242 995 5 14
-1 12 -20 -10 -110 -126 -468 -844 -618 -1240 -65 -173 -80 -238 -73 -313 8
-75 -3 -102 -43 -102 -79 0 -219 158 -260 295 -7 22 -15 47 -17 55 -3 8 -24
-20 -50 -70 -152 -284 -289 -452 -393 -480 -83 -22 -207 33 -299 133 -57 63
-65 86 -65 190 l0 87 -77 -148 c-105 -202 -194 -343 -261 -415 l-57 -59 -68 4
c-169 9 -324 143 -368 316 l-11 44 -54 -99 c-128 -235 -274 -425 -370 -481
-40 -24 -57 -27 -131 -27 -68 0 -93 5 -125 22 -82 43 -171 165 -206 281 l-13
43 -77 -156 c-130 -260 -225 -386 -304 -401 -20 -3 -67 -4 -104 -2 -167 12
-297 129 -351 317 l-23 80 -74 -137 c-94 -173 -205 -340 -277 -415 -45 -47
-52 -59 -38 -64 132 -44 238 -157 277 -295 28 -100 10 -238 -76 -582 -52 -207
-309 -1085 -346 -1182 -2 -5 19 -21 46 -34 71 -33 110 -96 131 -210 8 -44 8
-98 0 -197 -6 -75 -9 -138 -6 -140 8 -8 162 153 225 235 132 174 254 388 340
596 42 100 42 115 3 116 -29 0 -92 42 -131 86 -117 133 -188 424 -162 660 35
307 195 592 383 679 143 67 292 3 334 -142 40 -138 -24 -473 -169 -885 -25
-71 -44 -128 -41 -128 7 0 397 360 450 416 64 68 80 69 202 8 144 -72 222
-159 222 -248 0 -19 -25 -97 -56 -173 -195 -479 -303 -841 -304 -1015 0 -66 3
-81 23 -104 20 -23 28 -26 59 -20 24 4 47 19 69 44 82 93 261 407 389 682 73
156 93 204 186 445 67 174 209 406 349 574 129 153 226 217 316 209 108 -11
201 -109 254 -269 36 -108 32 -202 -15 -334 -102 -288 -407 -716 -582 -819
-43 -25 -46 -30 -50 -74 -21 -250 165 -202 418 108 77 94 213 294 289 424 39
67 74 146 106 242 148 442 469 910 696 1017 119 55 252 39 361 -43 35 -27 54
-36 57 -28 16 44 127 433 185 646 125 457 180 721 180 863 0 84 11 104 66 115
112 22 240 -104 304 -300 20 -61 22 -83 17 -170 -11 -185 -88 -502 -262 -1081
-54 -176 -135 -446 -181 -600 -169 -559 -222 -809 -180 -844 27 -23 72 22 173
174 146 220 364 660 480 970 119 318 302 593 479 721 157 113 303 129 469 50
84 -40 185 -119 185 -146 0 -29 -56 -66 -145 -95 -104 -34 -156 -65 -237 -143
-84 -80 -154 -181 -223 -320 -155 -309 -234 -738 -168 -904 61 -153 264 3 489
378 l63 105 -34 72 c-52 109 -70 194 -57 262 15 75 35 114 82 160 32 31 48 39
89 43 64 6 100 -19 131 -90 30 -70 23 -138 -28 -285 l-39 -113 41 0 c125 0
221 168 391 690 57 175 93 220 139 174 23 -23 20 -51 -24 -203 -106 -367 -208
-587 -328 -707 -74 -74 -155 -105 -226 -86 l-36 11 -35 -70 c-116 -229 -273
-419 -419 -508 -88 -53 -131 -65 -231 -66 -79 0 -97 4 -146 28 -139 68 -232
243 -254 478 l-7 77 -94 -187 c-158 -315 -311 -546 -418 -632 -62 -49 -140
-74 -209 -65 -132 18 -237 124 -297 300 l-17 50 -71 -145 c-132 -270 -235
-401 -327 -415 -218 -32 -417 139 -453 392 l-7 46 -83 -134 c-193 -310 -368
-505 -522 -581 -53 -26 -76 -32 -130 -32 -123 1 -226 56 -293 158 -42 63 -92
205 -102 291 l-7 60 -92 -180 c-136 -265 -233 -413 -341 -518 -58 -57 -110
-83 -187 -92 -152 -18 -278 84 -344 278 -44 130 -32 230 69 593 55 196 80 296
96 381 l8 43 -56 -38 c-79 -53 -175 -105 -247 -132 l-62 -23 -42 -110 c-110
-284 -347 -696 -502 -873 -66 -76 -149 -150 -199 -180 -16 -9 -29 -22 -29 -28
0 -27 -53 -341 -85 -505 -122 -623 -268 -1010 -402 -1067 -73 -30 -177 -9
-230 49 -99 106 -161 471 -134 798 13 168 47 408 90 651 51 281 53 276 -47 84
-211 -405 -363 -596 -501 -627 -148 -33 -278 57 -353 247 -75 190 -39 452 178
1290 29 116 81 327 114 470 34 143 65 264 69 270 11 13 73 273 110 460 38 192
54 329 49 424 -3 75 -3 76 27 90 26 13 37 12 95 -3 145 -37 262 -163 299 -322
28 -119 -26 -369 -264 -1229 -246 -886 -315 -1186 -315 -1362 0 -99 34 -142
86 -108 65 42 211 282 382 625 194 387 240 515 381 1045 248 929 320 1258 321
1461 l0 71 -77 5 c-52 3 -92 12 -118 26 -88 44 -165 161 -201 302 -22 85 -10
188 46 395 86 319 141 539 138 552 -2 9 -22 0 -63 -28 -72 -48 -190 -109 -262
-134 -51 -18 -53 -20 -68 -74 -132 -472 -232 -692 -374 -824 -68 -63 -124 -83
-200 -73 l-49 6 -56 -105 c-136 -262 -324 -456 -500 -517 -71 -24 -181 -23
-250 3 -147 54 -252 238 -274 476 l-7 78 -63 -130 c-145 -298 -277 -511 -392
-626 -62 -64 -84 -80 -129 -93 -68 -20 -103 -20 -168 -1 -96 29 -184 128 -235
268 -58 160 -49 266 59 657 111 404 162 648 147 712 -3 16 -3 45 1 65 13 71
107 77 201 12 109 -75 183 -238 171 -379 -7 -77 -46 -231 -117 -460 -96 -308
-123 -425 -124 -531 -1 -82 2 -100 18 -118 27 -30 86 -28 124 4 123 103 457
744 603 1155 131 370 396 701 613 765 139 42 304 1 439 -110 93 -75 75 -110
-87 -165 -102 -34 -172 -78 -249 -156 -157 -158 -301 -461 -368 -774 -31 -143
-33 -374 -5 -437 42 -95 129 -72 260 68 76 81 182 230 251 353 l38 67 -31 63
c-72 148 -80 266 -26 366 33 61 99 110 149 110 52 0 97 -38 123 -104 22 -54
23 -64 13 -122 -7 -35 -27 -107 -45 -161 -19 -54 -32 -101 -30 -105 10 -16 58
-7 99 17 92 54 161 190 298 590 l65 191 -51 18 c-105 37 -191 164 -244 363
-24 88 -27 115 -27 268 0 152 3 180 27 270 41 155 121 306 213 404 84 89 149
128 231 137 103 13 203 -49 238 -146 48 -132 1 -413 -140 -835 -34 -104 -62
-191 -60 -193 5 -5 393 352 447 411 58 64 83 65 188 14 101 -50 168 -103 204
-160 45 -74 41 -113 -33 -292 -191 -462 -315 -889 -297 -1024 9 -67 29 -91 75
-91 32 0 44 6 70 35 124 141 394 646 480 896 148 430 457 880 685 996 39 20
70 27 131 31 99 5 177 -21 242 -81 30 -27 44 -35 48 -26 13 39 102 345 159
551 140 503 196 757 203 921 5 103 9 121 26 138 28 26 105 25 156 -1z m-5985
-1333 c160 -43 254 -94 356 -196 72 -70 95 -101 128 -171 63 -130 85 -239 79
-385 -5 -129 -19 -193 -70 -321 -95 -237 -276 -465 -543 -685 -209 -172 -382
-279 -604 -374 l-98 -41 241 -216 c646 -578 1066 -905 1450 -1133 53 -31 97
-59 97 -62 0 -12 -226 -423 -233 -423 -11 0 -166 114 -312 229 -371 292 -771
668 -1282 1204 -146 152 -268 277 -272 277 -5 0 -15 -17 -24 -37 -8 -21 -56
-124 -105 -229 -124 -261 -213 -474 -267 -637 -55 -164 -66 -251 -41 -323 26
-76 32 -178 12 -208 -36 -56 -138 -37 -202 38 -68 79 -163 316 -179 447 -14
116 45 391 145 668 66 184 142 372 302 746 261 610 305 727 315 847 4 43 12
73 21 80 21 18 125 15 193 -5 79 -23 148 -73 184 -131 28 -46 30 -55 29 -145
-1 -137 -66 -377 -172 -639 l-22 -52 60 30 c332 167 614 443 765 745 78 158
106 261 113 414 5 147 -6 208 -56 304 -85 164 -262 247 -525 247 -213 0 -391
-47 -627 -165 -477 -240 -918 -730 -1078 -1200 -90 -262 -79 -525 27 -678 28
-40 53 -60 114 -93 140 -74 140 -95 0 -102 -150 -7 -260 43 -378 170 -110 119
-208 352 -222 528 -21 267 129 564 433 860 320 311 776 582 1227 729 281 91
470 122 732 117 166 -3 202 -7 289 -29z m1150 -447 c82 -31 126 -73 133 -128
5 -39 -1 -56 -55 -165 -41 -81 -73 -165 -97 -252 -20 -71 -45 -138 -54 -148
-62 -63 -212 26 -281 166 -98 200 -69 435 65 526 49 33 51 33 140 28 59 -3
110 -12 149 -27z m337 -2396 c178 -52 353 -204 410 -356 19 -53 20 -63 9 -145
-9 -71 -47 -273 -87 -455 -4 -20 -1 -28 8 -29 86 -6 211 26 335 86 70 34 103
57 142 100 86 94 101 190 53 357 -21 74 -19 78 41 78 48 0 99 -60 128 -150
l23 -72 -73 -317 c-40 -174 -79 -328 -86 -342 -22 -43 -113 -137 -178 -183
-131 -93 -253 -136 -412 -143 l-111 -6 -17 -166 c-58 -572 -41 -912 60 -1218
148 -447 446 -780 770 -863 97 -25 158 -25 259 0 97 25 165 56 227 103 l48 37
20 -39 19 -39 -67 -36 c-87 -45 -223 -90 -337 -111 -122 -23 -329 -16 -434 15
-254 73 -469 244 -651 518 -270 405 -407 931 -371 1420 7 86 18 192 25 235
l13 78 -25 -6 c-14 -3 -148 -72 -298 -151 l-274 -146 -51 -91 c-495 -879
-1061 -1460 -1548 -1587 -302 -79 -586 -22 -818 165 -272 219 -453 638 -429
992 38 555 427 1128 1046 1541 229 154 549 293 739 323 149 23 316 -16 448
-104 179 -119 373 -399 335 -483 -9 -19 -19 -24 -48 -24 -31 0 -46 9 -95 55
-63 61 -128 95 -229 121 -86 23 -284 23 -401 1 -569 -111 -1131 -518 -1446
-1049 -147 -248 -214 -490 -184 -664 15 -82 73 -212 136 -299 231 -325 645
-351 1093 -70 289 181 658 533 952 909 10 12 -15 4 -75 -27 -172 -86 -351
-160 -444 -183 -231 -59 -451 -11 -610 132 -97 87 -181 228 -181 304 0 25 4
30 24 30 13 0 43 -16 66 -35 23 -19 54 -38 69 -43 14 -4 103 -7 196 -6 142 0
195 5 320 28 277 52 412 98 965 326 l75 30 117 203 c64 111 146 258 181 327
36 69 99 186 141 260 189 336 345 688 354 799 3 36 10 69 16 73 18 12 58 9
117 -8z m9107 -1101 c12 -47 21 -87 19 -88 -1 -1 -6378 -1709 -6617 -1772 -11
-3 -20 17 -37 83 -13 48 -22 88 -20 89 4 3 6612 1773 6622 1774 6 1 20 -38 33
-86z m-9270 -2420 c12 -47 21 -87 19 -88 -1 -1 -2514 -673 -3037 -812 -11 -3
-20 17 -37 83 -13 48 -22 88 -20 89 4 3 3032 813 3042 814 6 1 20 -38 33 -86z"/>
<path d="M9610 12860 c-86 -93 -170 -328 -170 -475 0 -60 5 -82 30 -131 34
-69 76 -115 85 -93 2 8 34 133 71 279 57 226 67 279 68 360 1 92 0 95 -22 98
-17 3 -34 -8 -62 -38z"/>
<path d="M11773 12701 c-88 -54 -283 -368 -413 -663 -125 -287 -184 -513 -178
-681 4 -109 13 -125 58 -102 123 63 455 762 570 1200 27 103 37 229 20 250
-16 19 -18 19 -57 -4z"/>
<path d="M14395 10248 c-184 -190 -443 -717 -519 -1059 -30 -135 -36 -301 -12
-334 20 -27 54 -9 106 56 201 254 540 1088 540 1328 0 92 -31 95 -115 9z"/>
<path d="M11114 10161 c-89 -54 -196 -320 -198 -491 -1 -73 3 -93 26 -141 28
-55 73 -108 84 -96 3 3 28 95 56 204 92 368 114 503 86 531 -16 16 -17 15 -54
-7z"/>
<path d="M13018 9761 c-37 -43 -100 -171 -162 -328 -63 -159 -168 -464 -162
-470 8 -8 110 116 171 207 119 178 208 386 222 520 9 93 -23 127 -69 71z"/>
<path d="M10130 8577 c0 -2 -13 -71 -30 -152 -16 -81 -30 -158 -30 -170 0 -25
53 -79 93 -94 l29 -11 -4 187 c-4 191 -13 243 -45 243 -7 0 -13 -2 -13 -3z"/>
<path d="M9997 7918 c-118 -652 -181 -1162 -147 -1183 31 -19 95 108 149 296
55 192 127 556 159 811 l8 66 -45 7 c-25 4 -58 13 -73 21 -39 20 -45 18 -51
-18z"/>
<path d="M7890 9742 c-74 -136 -150 -276 -168 -312 -54 -103 -234 -434 -242
-445 -19 -25 -111 -198 -107 -201 6 -6 339 143 352 158 13 14 129 402 195 648
23 85 57 209 76 274 18 66 33 121 31 122 -1 2 -63 -108 -137 -244z"/>
</g>
</svg>
